<?xml version="1.0" encoding="utf-8"?>
<!-- Generator: Adobe Illustrator 18.0.0, SVG Export Plug-In . SVG Version: 6.00 Build 0)  -->
<!DOCTYPE svg PUBLIC "-//W3C//DTD SVG 1.1//EN" "http://www.w3.org/Graphics/SVG/1.1/DTD/svg11.dtd">
<svg version="1.1" id="Layer_1" xmlns="http://www.w3.org/2000/svg" xmlns:xlink="http://www.w3.org/1999/xlink" x="0px" y="0px"
	 viewBox="0 0 612 792" enable-background="new 0 0 612 792" xml:space="preserve">
<path fill="#00A1C1" d="M159,285.7h294l-147,91.9L159,285.7z M159,322.5v183.8h294V322.5l-147,91.9L159,322.5z M599.8,396
	c0,162.8-131,293.8-293.8,293.8S12.2,558.8,12.2,396s131-293.8,293.8-293.8S599.8,233.2,599.8,396z M489.8,285.8
	c0-20.3-16.6-36.8-36.8-36.8H159c-20.2,0-36.6,16.5-36.6,36.8l-0.2,220.5c0,20.2,16.5,36.8,36.8,36.8h294
	c20.2,0,36.8-16.5,36.8-36.8V285.8z"/>
</svg>
