<?xml version="1.0" encoding="utf-8"?>
<!-- Generator: Adobe Illustrator 18.0.0, SVG Export Plug-In . SVG Version: 6.00 Build 0)  -->
<!DOCTYPE svg PUBLIC "-//W3C//DTD SVG 1.1//EN" "http://www.w3.org/Graphics/SVG/1.1/DTD/svg11.dtd">
<svg version="1.1" id="Layer_1" xmlns="http://www.w3.org/2000/svg" xmlns:xlink="http://www.w3.org/1999/xlink" x="0px" y="0px"
	 viewBox="0 0 612 792" enable-background="new 0 0 612 792" xml:space="preserve">
<path fill="#00A1C1" d="M306,284.1c31,0,56,25,56,56S337,396,306,396s-56-25-56-56S275,284.1,306,284.1z M166.2,477.9v30H82.3v-29.3
	c0-15.1,9-28.5,22.8-34.5c15.8-6.8,33.3-10.8,51.8-10.8c7.2,0,14.1,0.7,21,1.8C170.5,447.8,166.1,462.3,166.2,477.9z M156.9,414.6
	c-20.6,0-37.3-16.8-37.3-37.3s16.8-37.3,37.3-37.3s37.3,16.8,37.3,37.3S177.4,414.6,156.9,414.6z M417.8,507.8H194.2v-30
	c0-22,12.7-42.2,32.8-50.9c21.8-9.7,48.6-17,79-17s57.2,7.3,79,16.8c20.1,8.9,32.8,29.1,32.8,50.9V507.8z M417.8,377.3
	c0-20.5,16.8-37.3,37.3-37.3s37.3,16.8,37.3,37.3s-16.8,37.3-37.3,37.3S417.9,397.8,417.8,377.3z M446,507.8v-30
	c0-15.5-4.4-30-11.8-42.7c6.8-1.1,13.7-1.8,21-1.8c18.4,0,36,3.9,51.8,10.8c13.9,6,22.8,19.4,22.8,34.5h0.1v29.2H446z M306,102.2
	c-162.8,0-293.8,131-293.8,293.8s131,293.8,293.8,293.8s293.8-131,293.8-293.8S468.8,102.2,306,102.2z"/>
</svg>
