<?xml version="1.0" encoding="utf-8"?>
<!-- Generator: Adobe Illustrator 18.0.0, SVG Export Plug-In . SVG Version: 6.00 Build 0)  -->
<!DOCTYPE svg PUBLIC "-//W3C//DTD SVG 1.1//EN" "http://www.w3.org/Graphics/SVG/1.1/DTD/svg11.dtd">
<svg version="1.1" id="Layer_1" xmlns="http://www.w3.org/2000/svg" xmlns:xlink="http://www.w3.org/1999/xlink" x="0px" y="0px"
	 viewBox="0 0 612 792" enable-background="new 0 0 612 792" xml:space="preserve">
<path fill="#00A1C1" d="M159,322.5v183.8h294V322.5l-147,91.9L159,322.5z M306,377.6l147-91.9H159L306,377.6z M489.8,506.3
	c0,20.3-16.6,36.8-36.8,36.8H159c-20.3,0-36.8-16.6-36.8-36.8l0.2-220.5c0-20.3,16.4-36.8,36.6-36.8h294c20.2,0,36.8,16.5,36.8,36.8
	V506.3z M306,102.2c-162.8,0-293.8,131-293.8,293.8s131,293.8,293.8,293.8s293.8-131,293.8-293.8S468.8,102.2,306,102.2z"/>
</svg>
