<?xml version="1.0" encoding="utf-8"?>
<!-- Generator: Adobe Illustrator 18.0.0, SVG Export Plug-In . SVG Version: 6.00 Build 0)  -->
<!DOCTYPE svg PUBLIC "-//W3C//DTD SVG 1.1//EN" "http://www.w3.org/Graphics/SVG/1.1/DTD/svg11.dtd">
<svg version="1.1" id="Layer_1" xmlns="http://www.w3.org/2000/svg" xmlns:xlink="http://www.w3.org/1999/xlink" x="0px" y="0px"
	 viewBox="0 0 50 50" enable-background="new 0 0 50 50" xml:space="preserve">
<path fill="#00A1C1" d="M25,1C11.7,1,1,11.7,1,25s10.7,24,24,24s24-10.7,24-24S38.3,1,25,1z M28.8,27.1l-3.7,3.7l1.3,1.3l-2.3,2.3
	c-2,2-5.2,2.3-7.5,0.8l-3.5,3.5l-1.7-1.7l3.5-3.5c-1.5-2.3-1.3-5.5,0.8-7.5l2.3-2.3l1.3,1.3l3.7-3.7c0.3-0.3,0.8-0.3,1.1,0
	c0.3,0.3,0.3,0.8,0,1.1L20.4,26l3.7,3.7l3.7-3.7c0.3-0.3,0.8-0.3,1.1,0C29.2,26.3,29.2,26.8,28.8,27.1z M34.3,24.2L32,26.4
	c-8.4-8.4-0.2-0.2-8.5-8.5l2.3-2.3c2-2,5.2-2.3,7.5-0.8l3.5-3.5l1.7,1.7L35,16.7C36.6,19,36.3,22.1,34.3,24.2z"/>
</svg>
