<?xml version="1.0" encoding="utf-8"?>
<!-- Generator: Adobe Illustrator 18.0.0, SVG Export Plug-In . SVG Version: 6.00 Build 0)  -->
<!DOCTYPE svg PUBLIC "-//W3C//DTD SVG 1.1//EN" "http://www.w3.org/Graphics/SVG/1.1/DTD/svg11.dtd">
<svg version="1.1" id="Layer_1" xmlns="http://www.w3.org/2000/svg" xmlns:xlink="http://www.w3.org/1999/xlink" x="0px" y="0px"
	 viewBox="0 0 50 50" enable-background="new 0 0 50 50" xml:space="preserve">
<path fill="#00A1C1" d="M30.9,21.5v-1.2v-5.9H12v18.9c0,1.4,1,2.4,2.4,2.4h17.2c-0.4-0.7-0.7-1.5-0.7-2.4V21.5z M20.3,33.3h-5.9
	v-2.4h5.9V33.3z M20.3,29.7h-5.9v-2.4h5.9V29.7z M20.3,26.2h-5.9v-2.4h5.9V26.2z M28.5,33.3h-5.9v-2.4h5.9V33.3z M28.5,29.7h-5.9
	v-2.4h5.9V29.7z M28.5,26.2h-5.9v-2.4h5.9V26.2z M28.5,17.9v3.5v1.2h-1.2H15.5h-1.2v-1.2v-3.5v-1.2h1.2h11.8h1.2V17.9z M33.3,22.6
	H38v10.6c0,1.4-1,2.4-2.4,2.4c-1.4,0-2.4-1-2.4-2.4V22.6z M25,1C11.7,1,1,11.7,1,25s10.7,24,24,24s24-10.7,24-24S38.3,1,25,1z
	 M40.4,21.5v11.8c0,2.6-2.1,4.7-4.7,4.7H14.4c-2.6,0-4.7-2.1-4.7-4.7V13.2V12h1.2h21.3h1.2v1.2v7.1h5.9h1.2V21.5z M16.7,19.1h9.5
	v1.2h-9.5V19.1z"/>
</svg>
