<?xml version="1.0" encoding="utf-8"?>
<!-- Generator: Adobe Illustrator 18.0.0, SVG Export Plug-In . SVG Version: 6.00 Build 0)  -->
<!DOCTYPE svg PUBLIC "-//W3C//DTD SVG 1.1//EN" "http://www.w3.org/Graphics/SVG/1.1/DTD/svg11.dtd">
<svg version="1.1" id="Layer_1" xmlns="http://www.w3.org/2000/svg" xmlns:xlink="http://www.w3.org/1999/xlink" x="0px" y="0px"
	 viewBox="0 0 50 50" enable-background="new 0 0 50 50" xml:space="preserve">
<path fill="#00A1C1" d="M25,1C11.7,1,1,11.7,1,25s10.7,24,24,24s24-10.7,24-24S38.3,1,25,1z M11.5,13.8c0-0.7,0.6-1.3,1.3-1.3h17.6
	c0.7,0,1.3,0.6,1.3,1.3V26c0,0.7-0.6,1.3-1.3,1.3H16.9l-5.4,5.4V13.8z M38.5,39.5l-5.4-5.4H18.3c-0.7,0-1.3-0.6-1.3-1.3V30h17.5
	V17.9h2.7c0.7,0,1.3,0.6,1.3,1.4V39.5z"/>
</svg>
