<?xml version="1.0" encoding="utf-8"?>
<!-- Generator: Adobe Illustrator 18.0.0, SVG Export Plug-In . SVG Version: 6.00 Build 0)  -->
<!DOCTYPE svg PUBLIC "-//W3C//DTD SVG 1.1//EN" "http://www.w3.org/Graphics/SVG/1.1/DTD/svg11.dtd">
<svg version="1.1" id="Layer_1" xmlns="http://www.w3.org/2000/svg" xmlns:xlink="http://www.w3.org/1999/xlink" x="0px" y="0px"
	 viewBox="0 0 50 50" enable-background="new 0 0 50 50" xml:space="preserve">
<path fill="#00A1C1" d="M25,18.9V33c1.7-1,4.7-1.8,6.8-1.8c1.5,0,2.9,0.2,4.3,0.6V17.6c-1.3-0.4-2.8-0.6-4.3-0.6
	C29.7,17,26.7,17.8,25,18.9z M34.8,28.8c-0.9-0.2-2-0.3-3.1-0.3c-2.2,0-4.1,0.4-5.5,1.2v-2c1.5-0.7,3.4-1,5.5-1
	c1.1,0,2.1,0.1,3.1,0.3V28.8z M34.8,25.5c-0.9-0.2-2-0.3-3.1-0.3c-2.2,0-4.1,0.4-5.5,1.2v-2c1.5-0.7,3.4-1,5.5-1
	c1.1,0,2.1,0.1,3.1,0.3V25.5z M34.8,22.3c-0.9-0.2-2-0.3-3.1-0.3c-2.2,0-4.1,0.4-5.5,1.2v-2c1.5-0.7,3.4-1,5.5-1
	c1.1,0,2.1,0.1,3.1,0.3V22.3z M25,1C11.7,1,1,11.7,1,25s10.7,24,24,24s24-10.7,24-24S38.3,1,25,1z M38.5,34.3c0,0.3-0.3,0.6-0.6,0.6
	c-0.1,0-0.2,0-0.3-0.1c-1.7-0.9-3.8-1.3-5.8-1.3c-2.1,0-5.1,0.8-6.8,1.8c-1.8-1.4-4.4-1.8-6.8-1.8c-1.8,0-4.2,0.6-5.8,1.3
	c-0.1,0-0.2,0.1-0.3,0.1c-0.3,0-0.6-0.3-0.6-0.6v-18c1.8-1.3,4.4-1.8,6.8-1.8c2.4,0,5,0.5,6.8,1.8c1.8-1.3,4.4-1.8,6.8-1.8
	c1.4,0,2.9,0.2,4.3,0.6c0.9,0.3,1.7,0.7,2.5,1.2V34.3z"/>
</svg>
