<?xml version="1.0" encoding="utf-8"?>
<!-- Generator: Adobe Illustrator 18.0.0, SVG Export Plug-In . SVG Version: 6.00 Build 0)  -->
<!DOCTYPE svg PUBLIC "-//W3C//DTD SVG 1.1//EN" "http://www.w3.org/Graphics/SVG/1.1/DTD/svg11.dtd">
<svg version="1.1" id="Layer_1" xmlns="http://www.w3.org/2000/svg" xmlns:xlink="http://www.w3.org/1999/xlink" x="0px" y="0px"
	 viewBox="0 0 612 792" enable-background="new 0 0 612 792" xml:space="preserve">
<path fill="#FFFFFF" d="M68.1,409.7h60.4c1.3,0,2.3-1,2.3-2.3v-27.9c0-1.3-1-2.3-2.3-2.3H68.1c-1.3,0-2.3,1-2.3,2.3v27.9
	C65.8,408.7,66.9,409.7,68.1,409.7z M68.1,379.5h60.4v27.9H68.1V379.5z M65.8,414.1c0-0.7,0.5-1.2,1.2-1.2h62.7
	c0.7,0,1.2,0.5,1.2,1.2v2.5c0,0.7-0.5,1.2-1.2,1.2H67c-0.7,0-1.2-0.5-1.2-1.2V414.1z M142.5,421.3c-5.3,0-9.7,4.4-9.7,9.7
	c0,1,0.2,2.1,0.5,3.1c-9.6,8.9-22.3,14-35.4,14c-25.3,0-47-18.5-51.3-43.2c3.2-1.6,5.5-4.8,5.5-8.8c0-3.9-2.3-7.2-5.5-8.8
	c4.2-24.7,26-43.2,51.3-43.2c13,0,25.5,5,35.1,13.6c-0.7,1.3-1,2.8-1,4.3c0,5.3,4.4,9.7,9.7,9.7s9.7-4.4,9.7-9.7s-4.4-9.7-9.7-9.7
	c-1.3,0-2.4,0.2-3.6,0.7c-10.9-10.2-25.3-15.9-40.2-15.9c-28.9,0-53.6,21.2-58.2,49.5c-4,1.2-7,5-7,9.4s3,8.2,7,9.4
	c4.5,28.3,29.3,49.5,58.2,49.5c14.8,0,29.1-5.7,39.8-15.6c1.4,0.8,3,1.3,4.8,1.3c5.3,0,9.7-4.4,9.7-9.7
	C152.2,425.6,147.9,421.3,142.5,421.3z M141.7,359.4c1.5,0,2.8,1.3,2.8,2.8s-1.3,2.8-2.8,2.8s-2.8-1.3-2.8-2.8
	S140.1,359.4,141.7,359.4z M42.4,398.9c-1.5,0-2.8-1.3-2.8-2.8s1.3-2.8,2.8-2.8s2.8,1.3,2.8,2.8S44,398.9,42.4,398.9z M142.5,433.8
	c-1.5,0-2.8-1.3-2.8-2.8s1.3-2.8,2.8-2.8c1.5,0,2.8,1.3,2.8,2.8S144.1,433.8,142.5,433.8z M467.5,343.5c0.8,0.8,1.2,1.7,1.2,3v54.7
	c0,1.2-0.3,2.2-1.2,3c-0.8,0.8-1.7,1.3-3,1.3c-1.2,0-2.2-0.3-3-1.3c-0.8-0.8-1.2-1.8-1.2-3v-54.7c0-1.3,0.3-2.2,1.2-3
	c0.8-0.8,1.8-1.2,3-1.2C465.8,342.2,466.8,342.7,467.5,343.5z M579.1,399.5l-22.7-54.4c-0.7-1.8-2.1-2.9-3.9-2.9
	c-1.8,0-3.1,0.9-3.9,2.9l-22.7,54.3c-0.7,1.5-0.6,2.8,0.2,4.2c0.8,1.4,2,2,3.5,2c0.8,0,1.5-0.2,2.2-0.7c0.8-0.5,1.3-1,1.7-2
	l4.6-11.3h29l4.5,11.3c0.3,0.8,0.8,1.5,1.5,2c0.8,0.5,1.5,0.7,2.3,0.7c1.6,0,2.8-0.6,3.5-1.7C579.5,402.4,579.7,401,579.1,399.5z
	 M540.7,384.5l11.8-28.8l11.5,28.8H540.7z M278.6,404.7c0.8,0.5,1.5,0.7,2.3,0.7c1.6,0,2.8-0.6,3.5-1.7c0.8-1.3,0.9-2.7,0.3-4.2
	L262,345.1c-0.7-1.8-2.1-2.9-3.9-2.9c-1.8,0-3.1,0.9-3.9,2.9l-22.7,54.3c-0.7,1.5-0.6,2.8,0.2,4.2c0.8,1.4,2,2,3.5,2
	c0.8,0,1.5-0.2,2.2-0.7c0.8-0.5,1.3-1,1.7-2l4.6-11.3h29l4.5,11.3C277.4,403.6,277.9,404.2,278.6,404.7z M246.3,384.5l11.8-28.8
	l11.5,28.8H246.3z M325.5,344.8c-3.1-1.7-6.7-2.7-10.7-2.7h-16.2c-1.2,0-2.2,0.3-3,1.2c-0.8,0.8-1.2,1.7-1.2,3v54.7
	c0,1.2,0.3,2.2,1.2,3c0.8,0.8,1.8,1.3,3,1.3c1.3,0,2.2-0.3,3-1.3c0.8-0.8,1.3-1.8,1.3-3v-17.7h12c4,0,7.6-0.9,10.7-2.5
	c3.1-1.7,5.5-4.2,7.3-7.2c1.7-3.1,2.7-6.6,2.7-10.5c0-4-0.9-7.7-2.7-10.9C331.1,349.1,328.6,346.7,325.5,344.8z M323.8,372.2
	c-2.4,2.3-5.4,3.5-9,3.5h-12v-25.8h12c2.4,0,4.6,0.6,6.6,1.7c1.8,1.2,3.3,2.7,4.5,4.7c1,2,1.6,4.2,1.6,6.8
	C327.4,366.8,326.2,369.9,323.8,372.2z M366.7,345.1c-0.7-1.8-2.1-2.9-3.9-2.9c-1.8,0-3.1,0.9-3.9,2.9l-22.7,54.3
	c-0.7,1.5-0.6,2.8,0.2,4.2c0.8,1.3,2,2,3.5,2c0.8,0,1.5-0.2,2.2-0.7c0.8-0.5,1.3-1,1.7-2l4.6-11.3h29l4.5,11.3
	c0.3,0.8,0.8,1.5,1.5,2c0.8,0.5,1.5,0.7,2.3,0.7c1.6,0,2.8-0.6,3.5-1.7c0.8-1.3,0.9-2.7,0.3-4.2L366.7,345.1z M351.1,384.5
	l11.8-28.8l11.5,28.8H351.1z M425.9,406.2c-4.4,0-8.4-0.8-12.2-2.4c-3.8-1.6-7-3.9-9.9-6.8c-2.8-3-5-6.5-6.6-10.4s-2.3-8.2-2.3-12.8
	c0-4.5,0.8-8.8,2.3-12.6c1.6-3.9,3.8-7.4,6.6-10.3c2.9-3,6.1-5.3,9.9-6.9c3.8-1.7,7.9-2.5,12.2-2.5c4.2,0,7.7,0.6,10.6,1.6
	c3,1,6,2.9,9,5.3c0.7,0.6,1,1,1.3,1.5c0.2,0.5,0.3,1,0.3,1.7c0,1-0.3,1.8-1.2,2.5c-0.7,0.7-1.6,1-2.5,1.2c-1,0-2.1-0.3-3-1
	c-2-1.7-4-3-6.2-3.9c-2.1-0.9-4.8-1.4-8.4-1.4c-3.2,0-6.1,0.7-9,2c-2.8,1.3-5.3,3.1-7.4,5.3c-2.1,2.3-3.7,5-5,8
	c-1.2,3-1.7,6.1-1.7,9.6c0,3.5,0.6,6.7,1.7,9.7s2.8,5.5,5,7.9c2.2,2.3,4.6,4,7.4,5.3c2.8,1.3,5.8,1.8,9,1.8c2.8,0,5.3-0.5,7.7-1.4
	c2.4-0.9,4.8-2.3,7.2-3.9c0.9-0.7,2-1,2.9-0.9c0.9,0,1.7,0.5,2.4,1.2c0.7,0.7,0.9,1.5,0.9,2.8c0,1.2-0.5,2.1-1.3,3
	C439.8,403.9,433.2,406.2,425.9,406.2z M181.6,364.2c-1.2,3-1.7,6.1-1.7,9.6c0,3.5,0.6,6.7,1.7,9.7c1.2,3,2.9,5.5,5,7.9
	c2.2,2.3,4.6,4,7.4,5.3c2.8,1.3,5.8,1.8,9,1.8c2.8,0,5.3-0.5,7.7-1.4c2.4-0.9,4.8-2.3,7.2-3.9c0.9-0.7,2-1,2.9-0.9
	c0.9,0,1.7,0.5,2.4,1.2c0.7,0.7,0.9,1.5,0.9,2.8c0,1.2-0.5,2.1-1.3,3c-5.8,4.7-12.5,7-19.9,7c-4.4,0-8.4-0.8-12.2-2.4
	c-3.8-1.6-7-3.9-9.9-6.8c-2.8-3-5-6.5-6.6-10.4c-1.6-3.9-2.3-8.2-2.3-12.8c0-4.5,0.8-8.8,2.3-12.6c1.6-3.9,3.8-7.4,6.6-10.3
	c2.9-3,6.1-5.3,9.9-6.9c3.8-1.7,7.9-2.5,12.2-2.5c4.2,0,7.7,0.6,10.6,1.6c3,1,6,2.9,9,5.3c0.7,0.6,1,1,1.3,1.5
	c0.2,0.5,0.3,1,0.3,1.7c0,1-0.3,1.8-1.2,2.5c-0.7,0.7-1.6,1-2.5,1.2c-1,0-2.1-0.3-3-1c-2-1.7-4-3-6.2-3.9c-2.1-0.9-4.8-1.4-8.4-1.4
	c-3.2,0-6.1,0.7-9,2s-5.3,3.1-7.4,5.3C184.5,358.6,182.8,361.2,181.6,364.2z M527.9,348.9c-0.7,0.7-1.6,1-2.8,1h-17.4v51.2
	c0,1.2-0.3,2.2-1.2,3c-0.8,0.8-1.8,1.3-3,1.3s-2.2-0.3-3-1.3c-0.8-0.8-1.2-1.8-1.2-3v-51.2H482c-1.2,0-2.1-0.3-2.9-1
	c-0.7-0.8-1-1.7-1-2.9c0-1.2,0.3-2.1,1-2.8c0.8-0.8,1.7-1.2,2.9-1.2h43.3c1.2,0,2.1,0.3,2.8,1.2c0.8,0.7,1.2,1.6,1.2,2.8
	C529.2,347.2,528.6,348.2,527.9,348.9z"/>
<path fill="#FFFFFF" d="M295.9,430.2c-0.9-1.1-2.2-1.9-3.8-2.6c-1.3-0.6-2.9-0.9-4.7-0.9s-3.4,0.3-4.7,0.9c-1.6,0.7-2.8,1.5-3.8,2.5
	c-1.1,1.1-1.9,2.4-2.5,3.8c-0.6,1.3-0.9,2.9-0.9,4.7c0,1.8,0.3,3.4,0.9,4.7c0.7,1.6,1.5,2.8,2.6,3.8c1.2,1.1,2.4,1.9,3.7,2.5
	c1.3,0.6,2.9,0.9,4.7,0.9c1.8,0,3.4-0.3,4.7-0.9c1.6-0.7,2.8-1.5,3.8-2.5c1-1,1.8-2.2,2.5-3.8c0.6-1.4,0.9-2.9,0.9-4.7
	c0-1.9-0.3-3.3-0.9-4.7C297.7,432.4,296.8,431.2,295.9,430.2z M295.6,438.6c0,1.2-0.2,2.2-0.6,3.3c-0.4,1.1-1.1,1.9-1.7,2.7
	c-0.7,0.7-1.6,1.3-2.6,1.7c-1.1,0.4-2.1,0.6-3.2,0.6c-1.2,0-2.3-0.2-3.3-0.6c-1.1-0.4-1.9-1.1-2.7-1.7c-0.7-0.7-1.3-1.7-1.7-2.7
	c-0.4-1.1-0.6-2.1-0.6-3.3c0-1.2,0.2-2.3,0.6-3.3c0.4-0.9,0.9-1.7,1.7-2.6c0.7-0.7,1.7-1.3,2.7-1.7c1.1-0.4,2.1-0.6,3.3-0.6
	c1.2,0,2.3,0.2,3.2,0.6c0.9,0.4,1.7,0.9,2.6,1.7c0.7,0.7,1.3,1.6,1.7,2.6C295.4,436.4,295.6,437.4,295.6,438.6z M350.6,427.7
	c0.3,0.3,0.4,0.8,0.4,1.2v19.5c0,0.5-0.2,1-0.5,1.3c-0.3,0.3-0.8,0.5-1.3,0.5c-0.5,0-1-0.2-1.3-0.5c-0.3-0.3-0.5-0.8-0.5-1.3v-19.5
	c0-0.5,0.2-1,0.5-1.3c0.3-0.3,0.8-0.5,1.3-0.5C349.5,427.1,350.2,427.1,350.6,427.7z M321.5,438.8c1.2,1.2,1.8,2.7,1.8,4.6
	c0,1.5-0.3,2.7-1,3.8c-0.6,1-1.6,1.9-2.7,2.4c-1.2,0.5-2.5,0.8-3.9,0.8c-1.9,0-3.6-0.4-5-1.2c-1.5-0.8-2.5-1.9-3.2-3.4
	c-0.3-0.5-0.2-1.1,0.1-1.5c0.2-0.4,0.5-0.6,0.9-0.8c0.2-0.1,0.4-0.2,0.7-0.2c0.3,0,0.6,0.1,0.7,0.2c0.4,0.2,0.7,0.5,0.9,0.9
	c0.4,0.7,0.9,1.3,1.7,1.6c0.8,0.4,1.9,0.6,3.2,0.6c1.3,0,2.3-0.3,3-0.9c0.7-0.6,1-1.4,1-2.6c0-0.9-0.3-1.7-1-2.3
	c-0.6-0.6-1.9-1.1-3.4-1.3c-2.4-0.4-4-1.1-5.3-2.2c-1.3-1.2-2.1-2.8-2.1-4.4c0-1.3,0.3-2.4,1-3.4c0.7-1,1.5-1.7,2.7-2.2
	c1-0.5,2.3-0.8,3.8-0.8c1.2,0,2.2,0.2,3,0.5c0.8,0.3,1.6,0.7,2.4,1.4c0.6,0.5,1.1,1.2,1.5,1.6l0.1,0.1l0,0.1
	c0.2,0.4,0.2,0.9,0.2,1.1c0,0.8-0.7,1.2-1,1.4c-0.2,0.1-0.4,0.2-0.7,0.2c-0.3,0-0.6-0.1-0.7-0.2c-0.4-0.2-0.6-0.4-0.7-0.5l-0.1-0.1
	l-0.1-0.1c-0.3-0.4-0.6-0.8-0.8-1c-0.2-0.2-0.7-0.5-1.2-0.7c-0.5-0.2-1-0.3-1.8-0.3c-1.2,0-2.2,0.3-2.8,0.8
	c-0.6,0.5-0.9,1.2-0.9,2.1c0,0.6,0.3,1.3,0.9,1.8c0.6,0.5,1.7,1,3.5,1.3l0.1,0C318.2,436.7,320.3,437.4,321.5,438.8z M265.5,438.7
	c1.2,1.2,1.8,2.7,1.8,4.6c0,1.5-0.3,2.7-1,3.8c-0.6,1-1.6,1.9-2.7,2.4c-1.2,0.5-2.5,0.8-3.9,0.8c-1.9,0-3.6-0.4-5-1.2
	c-1.5-0.8-2.6-1.9-3.2-3.4c-0.3-0.5-0.2-1.1,0.1-1.5c0.2-0.4,0.5-0.6,0.9-0.8c0.2-0.1,0.4-0.2,0.7-0.2s0.6,0.1,0.7,0.2
	c0.4,0.2,0.7,0.5,0.9,0.9c0.4,0.7,0.9,1.3,1.7,1.6c0.8,0.4,1.9,0.6,3.2,0.6c1.3,0,2.3-0.3,3-0.9c0.7-0.6,1-1.4,1-2.6
	c0-0.9-0.3-1.7-1-2.3c-0.6-0.6-1.9-1.1-3.4-1.3c-2.4-0.4-4-1.1-5.3-2.2c-1.3-1.2-2.1-2.8-2.1-4.4c0-1.3,0.3-2.4,1-3.4
	c0.7-1,1.5-1.7,2.7-2.2c1-0.5,2.3-0.8,3.8-0.8c1.2,0,2.2,0.2,3,0.5c0.8,0.3,1.6,0.7,2.4,1.4c0.6,0.5,1.1,1.2,1.5,1.6l0.1,0.1l0,0.1
	c0.2,0.4,0.2,0.9,0.2,1.1c0,0.8-0.7,1.2-1,1.4c-0.2,0.1-0.4,0.2-0.7,0.2s-0.6-0.1-0.7-0.2c-0.4-0.2-0.6-0.4-0.7-0.5l-0.1-0.1
	l-0.1-0.1c-0.3-0.4-0.6-0.8-0.8-1c-0.2-0.2-0.7-0.5-1.2-0.7c-0.5-0.2-1-0.3-1.8-0.3c-1.2,0-2.2,0.3-2.8,0.8
	c-0.6,0.5-0.9,1.2-0.9,2.1c0,0.6,0.3,1.3,0.9,1.8c0.6,0.5,1.7,1,3.5,1.3l0.1,0C262.9,436.9,264.4,437.7,265.5,438.7z M239.8,441.1
	c0.9-0.4,1.8-1.1,2.6-2.1c0.9-1.2,1.5-2.8,1.5-4.4c0-1.4-0.4-2.8-1.1-3.9c-0.7-1.1-1.7-2-2.8-2.7c-1.1-0.6-2.4-0.9-3.9-0.9h-5.2
	c-0.5,0-1,0.2-1.3,0.5c-0.3,0.3-0.5,0.8-0.5,1.3v19.5c0,0.5,0.2,1,0.5,1.3c0.3,0.3,0.8,0.5,1.3,0.5c0.5,0,1-0.2,1.3-0.5
	c0.3-0.3,0.5-0.8,0.5-1.3v-6.6h3.3l4.7,7.6l0,0v0.1l0.3,0.3c0.4,0.4,0.9,0.4,1.2,0.4c0.8,0,1.4-0.3,1.7-0.9c0.3-0.6,0.2-1.3-0.2-1.9
	L239.8,441.1z M232.6,430.7h3.4c0.8,0,1.4,0.1,2.3,0.5c0.6,0.2,1,0.6,1.4,1.4c0.4,0.5,0.5,1.2,0.5,2c0,0.7-0.2,1.3-0.5,1.9
	c-0.4,0.6-0.8,1-1.4,1.4c-0.8,0.3-1.5,0.4-2.2,0.4h-3.4V430.7z M176.1,435.5c-0.4,1-0.6,2.1-0.6,3.1c0,1.1,0.2,2.1,0.6,3.2
	c0.4,1.1,1.1,1.9,1.8,2.7c0.7,0.7,1.6,1.3,2.5,1.7c0.9,0.4,1.9,0.6,3.1,0.6c1.8,0,3.6-0.6,5-1.7c0.4-0.3,0.8-0.4,1-0.4
	c0.3,0,0.6,0.1,0.9,0.3c0.6,0.3,1,0.8,1,1.6v0.3c0,0.5-0.3,0.8-0.4,0.9c-1,1-2.2,1.7-3.5,2.1c-1.1,0.3-2.4,0.5-3.9,0.5
	c-1.8,0-3.2-0.4-4.4-0.9c-1.5-0.7-2.8-1.6-3.8-2.7c-1.1-1.2-1.9-2.4-2.5-3.7c-0.6-1.3-0.9-2.8-0.9-4.6s0.3-3.2,0.9-4.6
	c0.7-1.6,1.5-2.8,2.5-3.8c1-1.2,2.3-2,3.7-2.5c1.4-0.6,2.9-1,4.5-1c2.8,0,5.2,0.9,7.3,2.7c0.4,0.4,0.6,0.9,0.6,1.3s-0.2,1-0.5,1.3
	c-0.3,0.3-0.8,0.5-1.3,0.5c-0.3,0-0.9-0.1-1.4-0.6c-0.6-0.6-1.2-0.9-2-1.1c-0.8-0.2-1.8-0.4-2.8-0.4c-1.1,0-2.1,0.2-3,0.7
	c-0.7,0.3-1.8,0.9-2.6,1.8L178,433L178,433C177.1,433.7,176.5,434.5,176.1,435.5z M218.4,427.5c0.3,0.3,0.5,0.8,0.5,1.3v13.5
	c0,1.6-0.4,3-1.2,4.3c-0.8,1.3-1.8,2.2-3.3,3c-1.6,0.7-3.1,1-4.8,1c-1.7,0-3.2-0.3-4.7-1c-1.4-0.7-2.6-1.8-3.3-3.1
	c-0.8-1.3-1.2-2.8-1.2-4.3v-13.5c0-0.5,0.2-1,0.5-1.3c0.3-0.3,0.8-0.5,1.3-0.5c0.5,0,1,0.2,1.3,0.5c0.3,0.3,0.5,0.8,0.5,1.3v13.5
	c0,1,0.2,1.7,0.7,2.5c0.5,0.6,1.1,1.2,1.9,1.6c0.9,0.4,1.8,0.6,2.9,0.6c1.1,0,2.1-0.2,2.9-0.6c0.8-0.4,1.5-1,1.9-1.6
	c0.4-0.7,0.6-1.4,0.6-2.4v-13.5c0-0.5,0.2-1,0.5-1.3c0.3-0.3,0.8-0.5,1.3-0.5h0.1l0.4,0.1c0.2,0.1,0.4,0.1,0.7,0.2l0.1,0.1
	L218.4,427.5z M483.3,438.7c1.2,1.2,1.8,2.7,1.8,4.6c0,1.5-0.3,2.7-1,3.8c-0.6,1-1.6,1.9-2.7,2.4c-1.2,0.5-2.5,0.8-3.9,0.8
	c-1.9,0-3.6-0.4-5-1.2c-1.5-0.8-2.5-1.9-3.2-3.4c-0.3-0.5-0.2-1.1,0.1-1.5c0.2-0.4,0.5-0.6,0.9-0.8c0.2-0.1,0.4-0.2,0.7-0.2
	c0.3,0,0.6,0.1,0.7,0.2c0.4,0.2,0.7,0.5,0.9,0.9c0.4,0.7,0.9,1.3,1.7,1.6c0.8,0.4,1.9,0.6,3.2,0.6c1.3,0,2.3-0.3,3-0.9
	c0.7-0.6,1-1.4,1-2.6c0-0.9-0.3-1.7-1-2.3c-0.6-0.6-1.9-1.1-3.4-1.3c-2.4-0.4-4-1.1-5.3-2.2c-1.3-1.2-2.1-2.8-2.1-4.4
	c0-1.3,0.3-2.4,1-3.4c0.7-1,1.5-1.7,2.7-2.2c1-0.5,2.3-0.8,3.8-0.8c1.2,0,2.2,0.2,3,0.5c0.8,0.3,1.6,0.7,2.4,1.4
	c0.6,0.5,1.1,1.2,1.5,1.6l0.1,0.1l0,0.1c0.2,0.4,0.2,0.9,0.2,1.1c0,0.9-0.7,1.2-1,1.4c-0.2,0.1-0.4,0.2-0.7,0.2
	c-0.3,0-0.6-0.1-0.7-0.2c-0.4-0.2-0.6-0.4-0.7-0.5l-0.1-0.1l-0.1-0.1c-0.3-0.4-0.5-0.8-0.8-1c-0.2-0.2-0.7-0.5-1.2-0.7
	c-0.5-0.2-1-0.3-1.8-0.3c-1.2,0-2.2,0.3-2.8,0.8c-0.6,0.5-0.9,1.2-0.9,2.1c0,0.6,0.3,1.3,0.9,1.8c0.6,0.5,1.7,1,3.5,1.3l0.1,0
	C480.6,436.9,482.2,437.7,483.3,438.7z M552,430.2c-0.9-1.1-2.2-1.9-3.8-2.6c-1.3-0.6-2.9-0.9-4.7-0.9c-1.8,0-3.4,0.3-4.7,0.9
	c-1.6,0.7-2.8,1.5-3.8,2.5c-1.1,1.1-1.9,2.4-2.5,3.8c-0.6,1.3-0.9,2.9-0.9,4.7c0,1.8,0.3,3.4,0.9,4.7c0.7,1.6,1.5,2.7,2.6,3.8
	c1.2,1.1,2.4,1.9,3.7,2.5c1.3,0.6,2.9,0.9,4.7,0.9c1.8,0,3.4-0.3,4.7-0.9c1.6-0.7,2.8-1.5,3.8-2.5c1-1,1.8-2.2,2.5-3.8
	c0.6-1.4,0.9-2.9,0.9-4.7c0-1.9-0.3-3.3-0.9-4.7C553.8,432.4,552.9,431.2,552,430.2z M543.5,447c-1.2,0-2.3-0.2-3.3-0.6
	c-1.1-0.4-1.9-1.1-2.7-1.7c-0.7-0.7-1.3-1.7-1.7-2.7c-0.4-1.1-0.6-2.1-0.6-3.3c0-1.2,0.2-2.3,0.6-3.3c0.4-0.9,0.9-1.7,1.7-2.6
	c0.7-0.7,1.7-1.3,2.7-1.7c1.1-0.4,2.1-0.6,3.3-0.6c1.2,0,2.3,0.2,3.2,0.6c0.9,0.4,1.7,0.9,2.6,1.7c0.7,0.7,1.3,1.6,1.7,2.6
	c0.4,1.1,0.6,2.1,0.6,3.4c0.1,1.2-0.1,2.2-0.6,3.2c-0.4,1.1-1.1,1.9-1.7,2.7c-0.7,0.7-1.6,1.3-2.6,1.7
	C545.7,446.8,544.6,447,543.5,447z M497.6,427.7c0.3,0.3,0.4,0.8,0.4,1.2v19.5c0,0.5-0.2,1-0.5,1.3c-0.3,0.3-0.8,0.5-1.3,0.5
	s-1-0.2-1.3-0.5s-0.5-0.8-0.5-1.3v-19.5c0-0.5,0.2-1,0.5-1.3c0.3-0.3,0.8-0.5,1.3-0.5C496.5,427.1,497.2,427.1,497.6,427.7z
	 M525.8,428c0.2,0.5,0.3,1.1,0.1,1.7l-8.1,19.5c-0.2,0.4-0.4,0.6-0.6,0.8c-0.4,0.4-0.9,0.4-1.1,0.4c-0.7,0-1.3-0.4-1.6-1l-8.1-19.5
	c-0.2-0.5-0.5-1.2,0.1-2l0.1-0.1l0.1-0.1c0.4-0.4,0.9-0.6,1.4-0.6c1,0,1.5,0.7,1.6,1l0.1,0.1l6.5,15.6l6.4-15.4
	c0.2-0.4,0.7-1.3,1.8-1.3C525,427.1,525.6,427.5,525.8,428z M579.4,443.3c0,1.5-0.3,2.7-1,3.8c-0.6,1-1.6,1.9-2.7,2.4
	c-1.2,0.5-2.5,0.8-3.9,0.8c-1.9,0-3.6-0.4-5-1.2c-1.5-0.8-2.5-1.9-3.2-3.4c-0.3-0.5-0.2-1.1,0.1-1.5c0.2-0.4,0.5-0.6,0.9-0.8
	c0.2-0.1,0.4-0.2,0.7-0.2c0.3,0,0.6,0.1,0.7,0.2c0.4,0.2,0.7,0.5,0.9,0.9c0.4,0.7,0.9,1.3,1.7,1.6c0.8,0.4,1.9,0.6,3.2,0.6
	c1.3,0,2.3-0.3,3-0.9c0.7-0.6,1-1.4,1-2.6c0-0.9-0.3-1.7-1-2.3c-0.6-0.6-1.9-1.1-3.4-1.3c-2.4-0.4-4-1.1-5.3-2.2
	c-1.3-1.2-2.1-2.8-2.1-4.4c0-1.3,0.3-2.4,1-3.4c0.7-1,1.5-1.7,2.7-2.2c1-0.5,2.3-0.8,3.8-0.8c1.2,0,2.2,0.2,3,0.5
	c0.8,0.3,1.6,0.7,2.4,1.4c0.6,0.5,1.1,1.2,1.5,1.6l0.1,0.1l0,0.1c0.2,0.4,0.2,0.9,0.2,1.1c0,0.8-0.7,1.2-1,1.4
	c-0.2,0.1-0.4,0.2-0.7,0.2c-0.3,0-0.6-0.1-0.7-0.2c-0.4-0.2-0.6-0.4-0.7-0.5l-0.1-0.1l-0.1-0.1c-0.3-0.4-0.6-0.8-0.8-1
	c-0.2-0.2-0.7-0.5-1.2-0.7c-0.5-0.2-1-0.3-1.8-0.3c-1.2,0-2.2,0.3-2.8,0.8c-0.6,0.5-0.9,1.2-0.9,2.1c0,0.6,0.3,1.3,0.9,1.8
	c0.6,0.5,1.7,1,3.5,1.3l0.1,0c2.4,0.7,4,1.5,5,2.6C578.8,439.9,579.4,441.4,579.4,443.3z M393.4,435.5c-0.4,1-0.6,2.1-0.6,3.1
	c0,1.1,0.2,2.1,0.6,3.2c0.4,1.1,1.1,1.9,1.8,2.7c0.7,0.7,1.6,1.3,2.5,1.7c0.9,0.4,1.9,0.6,3.1,0.6c1.8,0,3.6-0.6,5-1.7
	c0.4-0.3,0.8-0.4,1-0.4c0.3,0,0.6,0.1,0.9,0.3c0.6,0.3,1,0.8,1,1.6v0.3c0,0.5-0.3,0.8-0.4,0.9c-1,1-2.2,1.7-3.5,2.1
	c-1.1,0.3-2.4,0.5-3.9,0.5c-1.8,0-3.2-0.4-4.4-0.9c-1.5-0.7-2.8-1.6-3.8-2.7c-1.1-1.2-1.9-2.4-2.5-3.7c-0.6-1.3-0.9-2.8-0.9-4.6
	s0.3-3.2,0.9-4.6c0.7-1.6,1.5-2.8,2.5-3.8c1-1.2,2.3-2,3.7-2.5c1.4-0.6,2.9-1,4.5-1c2.8,0,5.2,0.9,7.3,2.7c0.4,0.4,0.6,0.9,0.6,1.3
	s-0.2,1-0.5,1.3c-0.3,0.3-0.8,0.5-1.3,0.5c-0.5,0-1-0.2-1.4-0.6c-0.6-0.6-1.2-0.9-2-1.1c-0.8-0.2-1.8-0.4-2.8-0.4
	c-1.1,0-2.1,0.2-3,0.7c-0.7,0.3-1.8,0.9-2.6,1.8l-0.1,0.1l-0.1,0.1C394.4,433.7,393.8,434.5,393.4,435.5z M379.6,427.7
	c0.3,0.3,0.4,0.8,0.4,1.2v19.5c0,0.5-0.2,1-0.5,1.3c-0.3,0.3-0.8,0.5-1.3,0.5c-0.5,0-1-0.2-1.3-0.5l0,0l-12.1-15.7v14.5
	c0,0.5-0.2,1-0.5,1.3c-0.3,0.3-0.8,0.5-1.3,0.5c-0.5,0-1-0.2-1.3-0.5c-0.3-0.3-0.5-0.8-0.5-1.3v-19.5c0-0.5,0.2-1,0.5-1.3
	c0.3-0.3,0.8-0.5,1.3-0.5c0.5,0,1,0.2,1.3,0.5l0,0l12,15.6v-14.5c0-0.5,0.2-1,0.5-1.3c0.3-0.3,0.8-0.5,1.3-0.5h0.2l0.3,0.1
	C378.8,427.2,379.3,427.3,379.6,427.7z M432.9,447.3c0.3,0.3,0.5,0.7,0.5,1.2c0,0.4-0.2,0.7-0.3,0.9l-0.1,0.1l-0.1,0.1l-0.1,0.1
	c-0.3,0.3-0.8,0.5-1.3,0.5h-12c-0.5,0-1-0.2-1.3-0.5s-0.5-0.8-0.5-1.3v-19.5c0-0.5,0.2-1,0.5-1.3c0.3-0.3,0.8-0.5,1.3-0.5
	s1,0.2,1.3,0.5c0.3,0.3,0.5,0.8,0.5,1.3v17.9h10c0.1,0,0.2,0,0.4,0C432.2,446.8,432.6,447,432.9,447.3z M459.4,427.5
	c0.3,0.3,0.5,0.8,0.5,1.3v13.5c0,1.6-0.4,3-1.2,4.3c-0.8,1.3-1.8,2.2-3.3,3c-1.6,0.7-3.1,1-4.8,1s-3.2-0.3-4.7-1
	c-1.4-0.7-2.6-1.8-3.3-3.1c-0.8-1.3-1.2-2.8-1.2-4.3v-13.5c0-0.5,0.2-1,0.5-1.3c0.3-0.3,0.8-0.5,1.3-0.5c0.5,0,1,0.2,1.3,0.5
	s0.5,0.8,0.5,1.3v13.5c0,1,0.2,1.7,0.7,2.5c0.5,0.6,1.1,1.2,1.9,1.6c0.9,0.4,1.8,0.6,2.9,0.6c1.1,0,2.1-0.2,2.9-0.6
	c0.8-0.4,1.5-1,1.9-1.6c0.4-0.7,0.6-1.4,0.6-2.4v-13.5c0-0.5,0.2-1,0.5-1.3s0.8-0.5,1.3-0.5h0.1l0.1,0c0.1,0,0.2,0.1,0.3,0.1
	C458.7,427.2,459.1,427.2,459.4,427.5z"/>
</svg>
